# xmcd
#
# Track frame offsets:
#	150
#	16927
#	35707
#	50944
#	69929
#	86476
#	107883
#	128584
#
# Disc length: 1943 seconds
# Revision: 0
# Processed by: cddbd v1.5.2PL0 Copyright (c) Steve Scherf et al.
# Submitted via: dBpowerAMP V12.0
#
DISCID=67079508
DTITLE=Shakura S'Aida - Time... Disc 1
DYEAR=2012
DGENRE=Blues
TTITLE0=(Don't Try To Lay No Boogie Woogie On the) Queen of Rock N Soul
TTITLE1=Time
TTITLE2=Bring Me Back
TTITLE3=Your Love Always Got Me By
TTITLE4=My Dreamerman
TTITLE5=Between Us
TTITLE6=Devil Only Knows My First Name
TTITLE7=Don't Tell Mama Where Her Children Hide
EXTD=
EXTT0=
EXTT1=
EXTT2=
EXTT3=
EXTT4=
EXTT5=
EXTT6=
EXTT7=
PLAYORDER=
